<svg width="204" height="204" viewBox="0 0 204 204" fill="none" xmlns="http://www.w3.org/2000/svg">
<rect width="204" height="204" rx="102" fill="white"/>
<rect x="128" y="72" width="19" height="66" rx="9.5" fill="#7DB6FF"/>
<rect x="60" y="72" width="19" height="66" rx="9.5" fill="#7DB6FF"/>
<path d="M137.415 71.5C142.709 71.5 147.079 75.8176 146.246 81.0453C145.693 84.5198 144.837 87.9259 143.689 91.2082C141.503 97.4565 138.298 103.134 134.259 107.916C130.22 112.698 125.424 116.492 120.147 119.08C114.869 121.668 109.213 123 103.5 123C97.7875 123 92.1309 121.668 86.8533 119.08C81.5756 116.492 76.7802 112.698 72.7409 107.916C68.7015 103.134 65.4973 97.4565 63.3112 91.2082C62.1629 87.9259 61.3072 84.5198 60.7537 81.0453C59.9209 75.8176 64.2913 71.5 69.5849 71.5C74.8785 71.5 79.0272 75.8776 80.5184 80.9569C80.6731 81.484 80.841 82.0063 81.0218 82.5231C82.2445 86.0178 84.0367 89.1933 86.2959 91.868C88.5552 94.5428 91.2374 96.6645 94.1892 98.1121C97.1411 99.5597 100.305 100.305 103.5 100.305C106.695 100.305 109.859 99.5597 112.811 98.1121C115.763 96.6645 118.445 94.5428 120.704 91.868C122.963 89.1933 124.755 86.0178 125.978 82.5231C126.159 82.0063 126.327 81.484 126.482 80.9569C127.973 75.8776 132.122 71.5 137.415 71.5Z" fill="#2684FC"/>
</svg>
